# MagicaVoxel @ Ephtracy

# group
o 

# material
mtllib Climbable.mtl
usemtl palette

# normals
vn -1 0 0
vn 1 0 0
vn 0 0 1
vn 0 0 -1
vn 0 -1 0
vn 0 1 0

# texcoords
vt 0.306641 0.5
vt 0.373047 0.5
vt 0.986328 0.5
vt 0.990234 0.5

# verts
v -3.2 0 3.2
v -3.2 0 -3.2
v -3.2 0.1 3.1
v -3.2 0.1 -3.1
v -3.2 6.3 3.1
v -3.2 6.3 -3.1
v -3.2 6.4 3.2
v -3.2 6.4 -3.2
v -2.3 0 -2.8
v -2.3 0 -2.9
v -2.3 0.1 -2.8
v -2.3 0.2 -2.8
v -2.3 0.2 -2.9
v -2.3 1.1 -2.8
v -2.3 1.1 -2.9
v -2.3 1.4 -2.8
v -2.3 1.4 -2.9
v -2.3 2.3 -2.8
v -2.3 2.3 -2.9
v -2.3 2.6 -2.8
v -2.3 2.6 -2.9
v -2.3 3.5 -2.8
v -2.3 3.5 -2.9
v -2.3 3.8 -2.8
v -2.3 3.8 -2.9
v -2.3 4.7 -2.8
v -2.3 4.7 -2.9
v -2.3 5 -2.8
v -2.3 5 -2.9
v -2.3 5.9 -2.8
v -2.3 5.9 -2.9
v -2.3 6.2 -2.8
v -2.3 6.2 -2.9
v 2.5 0 -2.8
v 2.5 0 -3.2
v 2.5 0.1 -2.8
v 2.5 0.1 -3.2
v 2.5 6.3 -2.8
v 2.5 6.3 -3.2
v 2.5 6.4 -2.8
v 2.5 6.4 -3.2
v -2.5 0 -2.8
v -2.5 0 -3.2
v -2.5 0.1 -2.8
v -2.5 0.1 -3.2
v -2.5 6.3 -2.8
v -2.5 6.3 -3.2
v -2.5 6.4 -2.8
v -2.5 6.4 -3.2
v 2.3 0 -2.8
v 2.3 0 -2.9
v 2.3 0.1 -2.8
v 2.3 0.2 -2.8
v 2.3 0.2 -2.9
v 2.3 1.1 -2.8
v 2.3 1.1 -2.9
v 2.3 1.4 -2.8
v 2.3 1.4 -2.9
v 2.3 2.3 -2.8
v 2.3 2.3 -2.9
v 2.3 2.6 -2.8
v 2.3 2.6 -2.9
v 2.3 3.5 -2.8
v 2.3 3.5 -2.9
v 2.3 3.8 -2.8
v 2.3 3.8 -2.9
v 2.3 4.7 -2.8
v 2.3 4.7 -2.9
v 2.3 5 -2.8
v 2.3 5 -2.9
v 2.3 5.9 -2.8
v 2.3 5.9 -2.9
v 2.3 6.2 -2.8
v 2.3 6.2 -2.9
v 3.2 0 3.2
v 3.2 0 -3.2
v 3.2 0.1 3.1
v 3.2 0.1 -3.1
v 3.2 6.3 3.1
v 3.2 6.3 -3.1
v 3.2 6.4 3.2
v 3.2 6.4 -3.2
v -3.2 0 3.2
v -3.2 6.4 3.2
v -3.1 0.1 3.2
v -3.1 6.3 3.2
v 3.1 0.1 3.2
v 3.1 6.3 3.2
v 3.2 0 3.2
v 3.2 6.4 3.2
v -2.5 0 -2.8
v -2.5 0.1 -2.8
v -2.5 6.3 -2.8
v -2.5 6.4 -2.8
v -2.3 0 -2.8
v -2.3 0.1 -2.8
v -2.3 0.2 -2.8
v -2.3 1.1 -2.8
v -2.3 1.4 -2.8
v -2.3 2.3 -2.8
v -2.3 2.6 -2.8
v -2.3 3.5 -2.8
v -2.3 3.8 -2.8
v -2.3 4.7 -2.8
v -2.3 5 -2.8
v -2.3 5.9 -2.8
v -2.3 6.2 -2.8
v 2.3 0 -2.8
v 2.3 0.1 -2.8
v 2.3 0.2 -2.8
v 2.3 1.1 -2.8
v 2.3 1.4 -2.8
v 2.3 2.3 -2.8
v 2.3 2.6 -2.8
v 2.3 3.5 -2.8
v 2.3 3.8 -2.8
v 2.3 4.7 -2.8
v 2.3 5 -2.8
v 2.3 5.9 -2.8
v 2.3 6.2 -2.8
v 2.5 0 -2.8
v 2.5 0.1 -2.8
v 2.5 6.3 -2.8
v 2.5 6.4 -2.8
v -2.3 0 -2.9
v -2.3 0.2 -2.9
v -2.3 1.1 -2.9
v -2.3 1.4 -2.9
v -2.3 2.3 -2.9
v -2.3 2.6 -2.9
v -2.3 3.5 -2.9
v -2.3 3.8 -2.9
v -2.3 4.7 -2.9
v -2.3 5 -2.9
v -2.3 5.9 -2.9
v -2.3 6.2 -2.9
v 2.3 0 -2.9
v 2.3 0.2 -2.9
v 2.3 1.1 -2.9
v 2.3 1.4 -2.9
v 2.3 2.3 -2.9
v 2.3 2.6 -2.9
v 2.3 3.5 -2.9
v 2.3 3.8 -2.9
v 2.3 4.7 -2.9
v 2.3 5 -2.9
v 2.3 5.9 -2.9
v 2.3 6.2 -2.9
v -3.2 0 -3.2
v -3.2 6.4 -3.2
v -3.1 0.1 -3.2
v -3.1 6.3 -3.2
v -2.5 0 -3.2
v -2.5 0.1 -3.2
v -2.5 6.3 -3.2
v -2.5 6.4 -3.2
v 2.5 0 -3.2
v 2.5 0.1 -3.2
v 2.5 6.3 -3.2
v 2.5 6.4 -3.2
v 3.1 0.1 -3.2
v 3.1 6.3 -3.2
v 3.2 0 -3.2
v 3.2 6.4 -3.2
v -3.2 0 3.2
v 3.2 0 3.2
v -3.1 0 3.1
v 3.1 0 3.1
v -2.6 0 -2.7
v 2.6 0 -2.7
v -2.5 0 -2.8
v -2.3 0 -2.8
v 2.3 0 -2.8
v 2.5 0 -2.8
v -2.3 0 -2.9
v 2.3 0 -2.9
v -3.1 0 -3.1
v -2.6 0 -3.1
v 2.6 0 -3.1
v 3.1 0 -3.1
v -3.2 0 -3.2
v -2.5 0 -3.2
v 2.5 0 -3.2
v 3.2 0 -3.2
v -2.3 1.1 -2.8
v 2.3 1.1 -2.8
v -2.3 1.1 -2.9
v 2.3 1.1 -2.9
v -2.3 2.3 -2.8
v 2.3 2.3 -2.8
v -2.3 2.3 -2.9
v 2.3 2.3 -2.9
v -2.3 3.5 -2.8
v 2.3 3.5 -2.8
v -2.3 3.5 -2.9
v 2.3 3.5 -2.9
v -2.3 4.7 -2.8
v 2.3 4.7 -2.8
v -2.3 4.7 -2.9
v 2.3 4.7 -2.9
v -2.3 5.9 -2.8
v 2.3 5.9 -2.8
v -2.3 5.9 -2.9
v 2.3 5.9 -2.9
v -2.3 0.2 -2.8
v 2.3 0.2 -2.8
v -2.3 0.2 -2.9
v 2.3 0.2 -2.9
v -2.3 1.4 -2.8
v 2.3 1.4 -2.8
v -2.3 1.4 -2.9
v 2.3 1.4 -2.9
v -2.3 2.6 -2.8
v 2.3 2.6 -2.8
v -2.3 2.6 -2.9
v 2.3 2.6 -2.9
v -2.3 3.8 -2.8
v 2.3 3.8 -2.8
v -2.3 3.8 -2.9
v 2.3 3.8 -2.9
v -2.3 5 -2.8
v 2.3 5 -2.8
v -2.3 5 -2.9
v 2.3 5 -2.9
v -2.3 6.2 -2.8
v 2.3 6.2 -2.8
v -2.3 6.2 -2.9
v 2.3 6.2 -2.9
v -3.2 6.4 3.2
v 3.2 6.4 3.2
v -3.1 6.4 3.1
v 3.1 6.4 3.1
v -2.6 6.4 -2.7
v 2.6 6.4 -2.7
v -2.5 6.4 -2.8
v 2.5 6.4 -2.8
v -3.1 6.4 -3.1
v -2.6 6.4 -3.1
v 2.6 6.4 -3.1
v 3.1 6.4 -3.1
v -3.2 6.4 -3.2
v -2.5 6.4 -3.2
v 2.5 6.4 -3.2
v 3.2 6.4 -3.2

# faces
f 3/4/1 2/4/1 1/4/1
f 4/4/1 2/4/1 3/4/1
f 5/4/1 3/4/1 1/4/1
f 5/3/1 4/3/1 3/3/1
f 6/4/1 2/4/1 4/4/1
f 6/3/1 4/3/1 5/3/1
f 7/4/1 5/4/1 1/4/1
f 7/4/1 6/4/1 5/4/1
f 8/4/1 2/4/1 6/4/1
f 8/4/1 6/4/1 7/4/1
f 11/2/1 10/2/1 9/2/1
f 12/2/1 10/2/1 11/2/1
f 13/2/1 10/2/1 12/2/1
f 16/2/1 15/2/1 14/2/1
f 17/2/1 15/2/1 16/2/1
f 20/2/1 19/2/1 18/2/1
f 21/2/1 19/2/1 20/2/1
f 24/2/1 23/2/1 22/2/1
f 25/2/1 23/2/1 24/2/1
f 28/2/1 27/2/1 26/2/1
f 29/2/1 27/2/1 28/2/1
f 32/2/1 31/2/1 30/2/1
f 33/2/1 31/2/1 32/2/1
f 36/4/1 35/4/1 34/4/1
f 37/4/1 35/4/1 36/4/1
f 38/3/1 37/3/1 36/3/1
f 39/3/1 37/3/1 38/3/1
f 40/4/1 39/4/1 38/4/1
f 41/4/1 39/4/1 40/4/1
f 42/4/2 43/4/2 44/4/2
f 44/4/2 43/4/2 45/4/2
f 44/3/2 45/3/2 46/3/2
f 46/3/2 45/3/2 47/3/2
f 46/4/2 47/4/2 48/4/2
f 48/4/2 47/4/2 49/4/2
f 50/2/2 51/2/2 52/2/2
f 52/2/2 51/2/2 53/2/2
f 53/2/2 51/2/2 54/2/2
f 55/2/2 56/2/2 57/2/2
f 57/2/2 56/2/2 58/2/2
f 59/2/2 60/2/2 61/2/2
f 61/2/2 60/2/2 62/2/2
f 63/2/2 64/2/2 65/2/2
f 65/2/2 64/2/2 66/2/2
f 67/2/2 68/2/2 69/2/2
f 69/2/2 68/2/2 70/2/2
f 71/2/2 72/2/2 73/2/2
f 73/2/2 72/2/2 74/2/2
f 75/4/2 76/4/2 77/4/2
f 77/4/2 76/4/2 78/4/2
f 75/4/2 77/4/2 79/4/2
f 77/3/2 78/3/2 79/3/2
f 78/4/2 76/4/2 80/4/2
f 79/3/2 78/3/2 80/3/2
f 75/4/2 79/4/2 81/4/2
f 79/4/2 80/4/2 81/4/2
f 80/4/2 76/4/2 82/4/2
f 81/4/2 80/4/2 82/4/2
f 85/4/3 84/4/3 83/4/3
f 86/4/3 84/4/3 85/4/3
f 87/4/3 85/4/3 83/4/3
f 87/3/3 86/3/3 85/3/3
f 88/4/3 84/4/3 86/4/3
f 88/3/3 86/3/3 87/3/3
f 89/4/3 87/4/3 83/4/3
f 89/4/3 88/4/3 87/4/3
f 90/4/3 84/4/3 88/4/3
f 90/4/3 88/4/3 89/4/3
f 91/4/4 92/4/4 95/4/4
f 92/3/4 93/3/4 96/3/4
f 95/4/4 92/4/4 96/4/4
f 96/3/4 93/3/4 97/3/4
f 97/3/4 93/3/4 98/3/4
f 98/3/4 93/3/4 99/3/4
f 99/3/4 93/3/4 100/3/4
f 100/3/4 93/3/4 101/3/4
f 101/3/4 93/3/4 102/3/4
f 102/3/4 93/3/4 103/3/4
f 103/3/4 93/3/4 104/3/4
f 104/3/4 93/3/4 105/3/4
f 105/3/4 93/3/4 106/3/4
f 106/3/4 93/3/4 107/3/4
f 97/3/4 98/3/4 110/3/4
f 110/3/4 98/3/4 111/3/4
f 99/3/4 100/3/4 112/3/4
f 112/3/4 100/3/4 113/3/4
f 101/3/4 102/3/4 114/3/4
f 114/3/4 102/3/4 115/3/4
f 103/3/4 104/3/4 116/3/4
f 116/3/4 104/3/4 117/3/4
f 105/3/4 106/3/4 118/3/4
f 118/3/4 106/3/4 119/3/4
f 107/3/4 93/3/4 120/3/4
f 108/4/4 109/4/4 121/4/4
f 118/3/4 119/3/4 122/3/4
f 121/4/4 109/4/4 122/4/4
f 116/3/4 117/3/4 122/3/4
f 119/3/4 120/3/4 122/3/4
f 114/3/4 115/3/4 122/3/4
f 117/3/4 118/3/4 122/3/4
f 110/3/4 111/3/4 122/3/4
f 115/3/4 116/3/4 122/3/4
f 112/3/4 113/3/4 122/3/4
f 113/3/4 114/3/4 122/3/4
f 109/3/4 110/3/4 122/3/4
f 111/3/4 112/3/4 122/3/4
f 93/4/4 94/4/4 123/4/4
f 122/3/4 120/3/4 123/3/4
f 120/3/4 93/3/4 123/3/4
f 123/4/4 94/4/4 124/4/4
f 125/2/4 126/2/4 137/2/4
f 137/2/4 126/2/4 138/2/4
f 127/2/4 128/2/4 139/2/4
f 139/2/4 128/2/4 140/2/4
f 129/2/4 130/2/4 141/2/4
f 141/2/4 130/2/4 142/2/4
f 131/2/4 132/2/4 143/2/4
f 143/2/4 132/2/4 144/2/4
f 133/2/4 134/2/4 145/2/4
f 145/2/4 134/2/4 146/2/4
f 135/2/4 136/2/4 147/2/4
f 147/2/4 136/2/4 148/2/4
f 149/4/4 150/4/4 151/4/4
f 151/4/4 150/4/4 152/4/4
f 149/4/4 151/4/4 153/4/4
f 151/3/4 152/3/4 154/3/4
f 153/4/4 151/4/4 154/4/4
f 152/4/4 150/4/4 155/4/4
f 154/3/4 152/3/4 155/3/4
f 155/4/4 150/4/4 156/4/4
f 157/4/4 158/4/4 161/4/4
f 158/3/4 159/3/4 161/3/4
f 159/4/4 160/4/4 162/4/4
f 161/3/4 159/3/4 162/3/4
f 157/4/4 161/4/4 163/4/4
f 161/4/4 162/4/4 163/4/4
f 162/4/4 160/4/4 164/4/4
f 163/4/4 162/4/4 164/4/4
f 167/4/5 166/4/5 165/4/5
f 168/4/5 166/4/5 167/4/5
f 169/3/5 168/3/5 167/3/5
f 170/3/5 168/3/5 169/3/5
f 171/4/5 170/4/5 169/4/5
f 172/4/5 170/4/5 171/4/5
f 173/4/5 170/4/5 172/4/5
f 174/4/5 170/4/5 173/4/5
f 175/2/5 173/2/5 172/2/5
f 176/2/5 173/2/5 175/2/5
f 177/4/5 167/4/5 165/4/5
f 177/3/5 169/3/5 167/3/5
f 178/4/5 171/4/5 169/4/5
f 178/3/5 169/3/5 177/3/5
f 179/3/5 168/3/5 170/3/5
f 179/4/5 170/4/5 174/4/5
f 180/4/5 166/4/5 168/4/5
f 180/3/5 168/3/5 179/3/5
f 181/4/5 178/4/5 177/4/5
f 181/4/5 177/4/5 165/4/5
f 182/4/5 171/4/5 178/4/5
f 182/4/5 178/4/5 181/4/5
f 183/4/5 179/4/5 174/4/5
f 183/4/5 180/4/5 179/4/5
f 184/4/5 166/4/5 180/4/5
f 184/4/5 180/4/5 183/4/5
f 187/2/5 186/2/5 185/2/5
f 188/2/5 186/2/5 187/2/5
f 191/2/5 190/2/5 189/2/5
f 192/2/5 190/2/5 191/2/5
f 195/2/5 194/2/5 193/2/5
f 196/2/5 194/2/5 195/2/5
f 199/2/5 198/2/5 197/2/5
f 200/2/5 198/2/5 199/2/5
f 203/2/5 202/2/5 201/2/5
f 204/2/5 202/2/5 203/2/5
f 205/2/6 206/2/6 207/2/6
f 207/2/6 206/2/6 208/2/6
f 209/2/6 210/2/6 211/2/6
f 211/2/6 210/2/6 212/2/6
f 213/2/6 214/2/6 215/2/6
f 215/2/6 214/2/6 216/2/6
f 217/2/6 218/2/6 219/2/6
f 219/2/6 218/2/6 220/2/6
f 221/2/6 222/2/6 223/2/6
f 223/2/6 222/2/6 224/2/6
f 225/2/6 226/2/6 227/2/6
f 227/2/6 226/2/6 228/2/6
f 229/4/6 230/4/6 231/4/6
f 231/4/6 230/4/6 232/4/6
f 231/3/6 232/3/6 233/3/6
f 233/3/6 232/3/6 234/3/6
f 233/4/6 234/4/6 235/4/6
f 235/4/6 234/4/6 236/4/6
f 229/4/6 231/4/6 237/4/6
f 231/3/6 233/3/6 237/3/6
f 233/4/6 235/4/6 238/4/6
f 237/3/6 233/3/6 238/3/6
f 236/4/6 234/4/6 239/4/6
f 234/3/6 232/3/6 239/3/6
f 232/4/6 230/4/6 240/4/6
f 239/3/6 232/3/6 240/3/6
f 229/4/6 237/4/6 241/4/6
f 237/4/6 238/4/6 241/4/6
f 238/4/6 235/4/6 242/4/6
f 241/4/6 238/4/6 242/4/6
f 236/4/6 239/4/6 243/4/6
f 239/4/6 240/4/6 243/4/6
f 240/4/6 230/4/6 244/4/6
f 243/4/6 240/4/6 244/4/6
